<svg width="25" height="17" viewBox="0 0 25 17" fill="none" xmlns="http://www.w3.org/2000/svg">
<path fill-rule="evenodd" clip-rule="evenodd" d="M0 8.53662C0 8.21914 0.146336 7.91466 0.406816 7.69016C0.667295 7.46567 1.02058 7.33955 1.38896 7.33955H20.2602L15.223 2.99814C14.9776 2.77121 14.8441 2.47107 14.8504 2.16095C14.8568 1.85082 15.0025 1.55493 15.257 1.3356C15.5115 1.11628 15.8548 0.990644 16.2146 0.985172C16.5745 0.9797 16.9227 1.09482 17.186 1.30627L24.5938 7.69069C24.8539 7.91514 25 8.2194 25 8.53662C25 8.85385 24.8539 9.15811 24.5938 9.38256L17.186 15.767C16.9227 15.9784 16.5745 16.0936 16.2146 16.0881C15.8548 16.0826 15.5115 15.957 15.257 15.7376C15.0025 15.5183 14.8568 15.2224 14.8504 14.9123C14.8441 14.6022 14.9776 14.302 15.223 14.0751L20.2602 9.7337H1.38896C1.02058 9.7337 0.667295 9.60758 0.406816 9.38309C0.146336 9.15859 0 8.85411 0 8.53662Z" fill="#F28F3B"/>
</svg>
